<?xml version="1.0" encoding="UTF-8" standalone="no"?>
<!DOCTYPE svg PUBLIC "-//W3C//DTD SVG 1.1//EN" "http://www.w3.org/Graphics/SVG/1.1/DTD/svg11.dtd">
<svg width="100%" height="100%" viewBox="0 0 2500 2500" version="1.1" xmlns="http://www.w3.org/2000/svg" xmlns:xlink="http://www.w3.org/1999/xlink" xml:space="preserve" xmlns:serif="http://www.serif.com/" style="fill-rule:evenodd;clip-rule:evenodd;stroke-linejoin:round;stroke-miterlimit:2;">
    <g transform="matrix(1.07072,0,0,1.07072,-88.3967,0)">
        <circle cx="1250" cy="1167.44" r="1167.44" style="fill:rgb(5,53,193);"/>
        <rect x="1502.06" y="530.657" width="689.849" height="689.849" style="fill:none;"/>
        <path d="M2019.45,818.057L1949.62,818.057C1914.87,718.779 1813.51,659.107 1709.84,676.893C1606.16,694.678 1530.5,784.726 1530.82,889.905C1530.85,1008.98 1627.37,1105.49 1746.43,1105.52L2019.45,1105.52C2096.97,1102.94 2158.47,1039.35 2158.47,961.785C2158.47,884.223 2096.97,820.638 2019.45,818.057Z" style="fill:rgb(234,234,234);fill-rule:nonzero;"/>
        <path d="M2163.2,963.563L2163.2,961.812C2163.18,882.431 2098.83,818.089 2019.45,818.057L1947.6,818.057L1947.6,821.665L2019.45,821.665C2098.11,821.66 2162.16,884.866 2163.2,963.509L2163.2,963.563Z" style="fill:white;fill-opacity:0.2;fill-rule:nonzero;"/>
        <g>
            <path d="M1746.43,674.412L1862.96,1042.47C1901.91,1003.36 1961.98,949.445 1961.98,889.96C1961.95,770.899 1865.44,674.385 1746.38,674.357L1746.43,674.412Z" style="fill:rgb(225,225,225);fill-rule:nonzero;"/>
            <circle cx="1746.43" cy="889.96" r="215.607" style="fill:rgb(238,238,238);"/>
            <path d="M1746.43,677.964C1864.79,678.019 1960.99,773.457 1961.98,891.821L1961.98,890.069C1962.03,771.009 1865.54,674.457 1746.48,674.412C1627.42,674.366 1530.87,770.849 1530.82,889.91L1530.82,891.661C1531.9,773.343 1628.11,677.987 1746.43,677.964Z" style="fill:white;fill-opacity:0.2;fill-rule:nonzero;"/>
            <path d="M2019.45,1101.91L1746.38,1101.91C1628.01,1101.85 1531.81,1006.41 1530.82,888.054L1530.82,889.805C1530.88,1008.85 1627.38,1105.33 1746.43,1105.35L2019.45,1105.35C2098.81,1105.33 2163.15,1041.02 2163.2,961.657L2163.2,959.902C2162.22,1038.6 2098.15,1101.88 2019.45,1101.91Z" style="fill:rgb(33,33,33);fill-opacity:0.1;fill-rule:nonzero;"/>
            <rect x="931.608" y="490.854" width="610.253" height="530.657" style="fill:rgb(255,241,118);fill-rule:nonzero;"/>
            <rect x="865.273" y="1300.1" width="729.651" height="729.651" style="fill:white;fill-rule:nonzero;"/>
            <g>
                <path d="M1674.52,968.448L1780.66,968.448L1780.66,1180.71L719.343,1180.71L719.343,968.448L825.475,968.448L825.475,543.923L1250,278.59L1674.52,543.918L1674.52,968.448ZM1462.26,968.448L1462.26,661.565L1250,528.906L1037.74,661.565L1037.74,968.448L1462.26,968.448Z" style="fill:rgb(244,72,30);fill-rule:nonzero;"/>
                <path d="M672.221,2182.11L852.007,968.448L1647.99,968.448L1827.78,2182.11C1651.81,2282.52 1452.6,2335.2 1250,2334.88C1047.4,2335.2 848.19,2282.52 672.221,2182.11ZM1487.68,1334.65L988.333,1496.88L927.631,1906.53L1542.77,1706.63L1487.68,1334.65Z" style="fill:rgb(244,72,30);fill-rule:nonzero;"/>
            </g>
        </g>
        <rect x="334.621" y="756.183" width="795.981" height="795.985" style="fill:none;"/>
        <g>
            <path d="M931.608,1087.84L850.999,1087.84C810.732,973.491 693.874,904.84 574.384,925.348C454.895,945.86 367.615,1049.55 367.784,1170.78C367.875,1308.13 479.21,1419.44 616.558,1419.5L931.608,1419.5C1021.56,1417.22 1093.29,1343.65 1093.29,1253.67C1093.29,1163.69 1021.56,1090.12 931.608,1087.84Z" style="fill:rgb(250,250,250);fill-rule:nonzero;"/>
            <path d="M1097.43,1255.64L1097.43,1253.68C1097.43,1162.13 1023.15,1087.84 931.608,1087.84L848.665,1087.84L848.665,1091.98L931.608,1091.98C1022.34,1092.01 1096.22,1164.91 1097.43,1255.64Z" style="fill:white;fill-opacity:0.2;fill-rule:nonzero;"/>
            <path d="M616.558,922.014L750.973,1346.64C795.92,1301.54 865.223,1239.34 865.223,1170.68C865.132,1033.35 753.833,922.051 616.503,921.96L616.558,922.014Z" style="fill:rgb(225,225,225);fill-rule:nonzero;"/>
            <circle cx="616.558" cy="1170.78" r="248.77" style="fill:white;"/>
            <path d="M616.558,926.155C753.121,926.237 864.11,1036.35 865.278,1172.91L865.278,1170.94C865.278,1170.92 865.278,1170.89 865.278,1170.86C865.278,1034.4 752.989,922.117 616.531,922.117C480.102,922.117 367.827,1034.36 367.784,1170.78L367.784,1172.75C369.01,1036.22 480.022,926.178 616.558,926.151L616.558,926.155Z" style="fill:white;fill-opacity:0.2;fill-rule:nonzero;"/>
            <path d="M931.608,1415.36L616.503,1415.36C479.94,1415.28 368.951,1305.17 367.784,1168.61L367.784,1170.57C367.843,1307.94 479.192,1419.29 616.558,1419.35L931.608,1419.35C1023.15,1419.35 1097.43,1345.05 1097.43,1253.51L1097.43,1251.5C1096.33,1342.3 1022.42,1415.34 931.608,1415.36Z" style="fill:rgb(33,33,33);fill-opacity:0.1;fill-rule:nonzero;"/>
            <path d="M1250,12.203C1892.73,12.203 2413.99,531.555 2417.34,1173.54L2417.44,1167.44C2417.44,522.695 1894.75,0 1250,0C605.253,0 82.558,522.695 82.558,1167.44C82.558,1169.46 82.718,1171.42 82.718,1173.54C86.006,531.61 607.164,12.203 1250,12.203Z" style="fill:white;fill-opacity:0.2;fill-rule:nonzero;"/>
            <path d="M2417.34,1161.34C2413.94,1803.33 1892.73,2322.68 1250,2322.68C607.219,2322.68 86.006,1803.27 82.718,1161.34C82.718,1163.46 82.558,1165.43 82.558,1167.44C82.558,1812.19 605.253,2334.88 1250,2334.88C1894.75,2334.88 2417.44,1812.19 2417.44,1167.44L2417.34,1161.34Z" style="fill:rgb(38,50,56);fill-opacity:0.2;fill-rule:nonzero;"/>
        </g>
    </g>
</svg>
